<?xml version="1.0" standalone="no"?>
<!DOCTYPE svg PUBLIC "-//W3C//DTD SVG 20010904//EN"
 "http://www.w3.org/TR/2001/REC-SVG-20010904/DTD/svg10.dtd">
<svg version="1.0" xmlns="http://www.w3.org/2000/svg"
 width="736.000000pt" height="736.000000pt" viewBox="0 0 736.000000 736.000000"
 preserveAspectRatio="xMidYMid meet">
<metadata>
Created by potrace 1.14, written by Peter Selinger 2001-2017
</metadata>
<g transform="translate(0.000000,736.000000) scale(0.100000,-0.100000)"
fill="#000000" stroke="none">
<path d="M2677 7244 c-3 -3 -71 -5 -151 -6 -107 0 -146 -3 -146 -12 0 -24 21
-34 56 -26 19 4 36 4 39 -1 3 -4 12 -6 20 -3 22 9 176 10 182 1 2 -4 9 -5 14
-1 16 9 70 11 75 2 3 -4 15 -4 27 0 25 9 53 8 80 -3 10 -4 17 -3 17 5 0 6 4 9
9 5 10 -6 62 -6 169 -2 34 1 64 -2 66 -8 3 -7 5 -7 5 0 1 8 126 13 126 5 0 -1
13 -3 28 -4 16 -1 31 -7 35 -13 8 -13 6 -6330 -2 -6383 -5 -29 -19 -97 -29
-135 -1 -5 -6 -16 -10 -22 -5 -7 -6 -13 -3 -13 10 0 -26 -82 -63 -145 -44 -75
-175 -205 -207 -205 -7 0 -14 -4 -16 -8 -4 -11 -124 -60 -163 -67 -94 -18
-127 -21 -195 -19 -90 2 -151 11 -205 30 -22 8 -44 16 -50 18 -64 19 -184 97
-249 162 -46 46 -116 143 -116 161 0 4 -6 20 -14 35 -24 45 -38 134 -35 221 1
45 5 87 8 92 3 6 7 18 8 28 8 47 53 103 192 236 83 79 163 162 178 185 15 22
31 43 34 46 12 11 42 99 53 160 12 68 14 223 2 299 -11 74 -53 186 -98 262
-83 139 -253 287 -383 333 -27 10 -57 20 -65 23 -44 17 -128 27 -220 26 -240
-1 -503 -147 -647 -358 -154 -228 -203 -452 -159 -740 5 -33 54 -194 64 -210
4 -5 7 -12 7 -15 3 -16 55 -114 89 -165 45 -68 45 -67 86 -116 16 -20 30 -40
30 -44 0 -3 53 -60 118 -125 295 -296 792 -533 1192 -567 130 -11 427 -5 565
12 102 13 340 60 403 80 7 3 14 5 17 5 7 1 155 56 198 73 20 9 38 16 40 15 12
-7 274 150 357 213 93 71 238 211 289 279 14 19 28 37 31 40 10 9 117 181 118
190 0 3 14 33 31 66 57 116 121 331 137 460 3 23 7 51 9 62 15 81 18 506 18
2860 0 2279 2 2656 14 2668 15 14 30 18 73 15 46 -3 55 -4 85 -2 17 1 37 1 45
1 8 -1 48 1 88 2 41 2 74 -1 76 -7 3 -7 5 -7 5 0 1 11 113 11 130 1 5 -4 12
-2 15 3 3 4 24 5 46 1 23 -4 40 -3 40 2 0 5 4 6 10 3 10 -6 44 -7 178 -2 41 1
76 -1 79 -6 2 -4 9 -4 15 -1 6 4 23 7 37 8 31 1 36 27 6 33 -11 2 -42 3 -70 3
-124 -2 -241 -2 -250 0 -5 1 -14 1 -20 0 -5 -1 -48 -1 -95 0 -47 0 -91 1 -97
1 -7 0 -114 -1 -238 -1 -123 -1 -229 1 -234 4 -5 4 -12 2 -15 -2 -5 -9 -66 -7
-92 2 -6 2 -17 1 -24 -4 -7 -4 -25 -4 -41 0 -15 5 -30 6 -33 3 -6 -7 -265 -5
-276 2 -5 3 -11 1 -14 -3 -5 -9 -66 -7 -92 2 -6 2 -17 1 -24 -4 -7 -4 -25 -4
-41 0 -15 5 -30 6 -33 3 -6 -7 -265 -5 -276 2 -5 3 -11 1 -14 -3 -5 -9 -66 -7
-92 2 -6 2 -17 1 -24 -4 -7 -4 -26 -4 -41 0 -17 5 -31 5 -35 -1 -3 -5 -9 -7
-13 -4 -9 5 -278 7 -576 4 -121 -1 -155 0 -163 5 -5 3 -12 3 -15 0z"/>
<path d="M5898 1344 c-2 -1 -19 -4 -38 -7 -92 -14 -203 -71 -275 -142 -131
-129 -186 -265 -181 -446 4 -111 24 -190 72 -276 34 -60 132 -173 151 -173 6
0 16 -7 23 -15 14 -17 105 -62 141 -69 13 -3 35 -8 49 -12 14 -4 63 -7 110 -8
166 -2 311 71 417 209 101 133 140 311 105 485 -40 201 -199 381 -382 434 -46
13 -184 28 -192 20z"/>
</g>
</svg>
