<svg xmlns="http://www.w3.org/2000/svg" width="37" height="46" fill="none" viewBox="0 0 37 46">
  <path fill="#053634" d="M30.622.995c.081 0 .122-.04.122-.122 0-.081-.04-.122-.122-.122h-20.13c-.081 0-.122.04-.122.122 0 .081.04.122.122.122h5.49c.244 0 .366.081.366.244v38.613c0 1.708-.407 2.969-1.22 3.782-.773.813-1.81 1.22-3.111 1.22-1.057 0-2.033-.366-2.928-1.098-.854-.732-1.281-1.627-1.281-2.684 0-.732.163-1.26.488-1.586.325-.325.671-.65 1.037-.976a7.233 7.233 0 0 0 1.037-1.159c.325-.447.488-1.159.488-2.135 0-1.301-.468-2.44-1.403-3.416s-2.074-1.464-3.416-1.464c-.61 0-1.22.142-1.83.427-.61.244-1.159.61-1.647 1.098-.488.488-.895 1.098-1.22 1.83-.325.691-.488 1.484-.488 2.379 0 1.098.305 2.196.915 3.294a11.857 11.857 0 0 0 2.501 2.867 14.7 14.7 0 0 0 3.599 2.013c1.342.529 2.725.793 4.148.793 3.863 0 6.934-.976 9.211-2.928 2.318-1.952 3.477-4.717 3.477-8.296V1.239c0-.163.142-.244.427-.244h5.49Z"/>
  <path fill="#EBB017" d="M36.03 41.194c0-.976-.326-1.81-.976-2.501-.651-.732-1.444-1.098-2.38-1.098-.935 0-1.748.366-2.44 1.098-.65.691-.975 1.525-.975 2.501 0 1.017.325 1.87.976 2.562.69.691 1.504 1.037 2.44 1.037.935 0 1.728-.346 2.379-1.037.65-.691.976-1.545.976-2.562Z"/>
</svg>
