<svg>
  <view viewBox="0 0 167 66" id="creater-fav">
    <path fill="#72908B" d="M17.29 15.736C8.287 15.736.959 23.441.959 32.908c0 9.468 7.328 17.173 16.333 17.173 9.004 0 16.332-7.705 16.332-17.173 0-9.467-7.328-17.172-16.332-17.172Zm8.881 25.008a12.45 12.45 0 0 1-1.739 1.305c-.62.458-1.366.784-2.111 1.176-.745.326-1.615.587-2.484.783-.87.196-1.801.327-2.795.327-1.428 0-2.732-.196-3.788-.523-1.056-.326-1.925-.783-2.608-1.436a5.114 5.114 0 0 1-1.49-2.155c-.31-.849-.497-1.697-.497-2.677 0-1.371.31-2.481.87-3.395.558-.914 1.365-1.698 2.297-2.35-.497-.523-.87-1.176-1.18-1.96a5.957 5.957 0 0 1-.497-2.415c0-.914.187-1.829.497-2.612.31-.784.807-1.502 1.366-2.09a6.651 6.651 0 0 1 2.112-1.37c.807-.327 1.676-.458 2.608-.458 1.056 0 1.987.196 2.794.523.87.326 1.553.783 2.174 1.37.621.588 1.056 1.307 1.366 2.09a7.3 7.3 0 0 1 .497 2.677c0 1.11-.31 2.09-.87 2.939-.558.848-1.242 1.567-2.049 2.22l2.857 2.546c.248-.261.497-.522.745-.849.248-.261.559-.653.932-1.175l4.223 3.787a14.039 14.039 0 0 1-1.491 1.893 11.812 11.812 0 0 1-1.739 1.829Zm-1.614-3.07c-.373.392-.808.719-1.18 1.045a15.659 15.659 0 0 1-2.733 1.502c-1.055.457-2.297.653-3.726.653-.497 0-.993-.065-1.552-.196a5.533 5.533 0 0 1-1.429-.587 2.948 2.948 0 0 1-1.055-1.11c-.31-.457-.435-1.045-.435-1.698 0-.98.248-1.698.807-2.285.497-.588 1.242-1.11 2.236-1.633l.931-.522 4.969 4.31.62-.458-4.843-4.244c1.18-.653 2.111-1.37 2.794-2.154.683-.784 1.056-1.698 1.056-2.808 0-.588-.124-1.11-.31-1.567-.25-.457-.498-.914-.932-1.24a4.046 4.046 0 0 0-1.366-.784c-.497-.196-1.056-.261-1.677-.261a3.99 3.99 0 0 0-1.49.26 4.42 4.42 0 0 0-1.305.784c-.372.327-.683.784-.931 1.24-.249.458-.31 1.046-.31 1.633 0 .85.186 1.567.62 2.155.435.653.994 1.24 1.74 1.893l.807.719-.746.391c-.435.262-.931.523-1.304.784-.435.326-.745.653-1.056.98-.31.391-.559.783-.683 1.24-.186.457-.248.98-.248 1.502 0 .718.124 1.37.435 1.958.31.588.683.98 1.18 1.372.496.326 1.055.653 1.676.783.621.196 1.304.261 1.988.261a10.75 10.75 0 0 0 3.912-.718 14.052 14.052 0 0 0 2.919-1.632 14.856 14.856 0 0 0 2.484-2.416l-.621-.457-1.242 1.306ZM15.49 31.08c-.87-.718-1.366-1.371-1.677-1.893a3.621 3.621 0 0 1-.373-1.568c0-.914.311-1.697.87-2.285a3.207 3.207 0 0 1 2.298-.914c.434 0 .87.065 1.242.196.434.13.745.326 1.117.588.311.26.56.587.746.98.186.39.31.848.31 1.37 0 1.045-.31 1.894-.931 2.547-.621.653-1.49 1.24-2.67 1.893l-.932-.914Zm2.173-2.677c.187-.261.31-.588.31-.98 0-.848-.372-1.24-1.179-1.24-.373 0-.621.13-.87.326-.248.262-.31.523-.31.915 0 .326.062.587.186.914.125.26.435.587.808.98.497-.327.807-.654 1.055-.915Zm-2.484 8.75c0 .522.187.913.621 1.175.373.26.87.391 1.367.391.31 0 .62 0 .993-.065.31-.065.621-.13.932-.261l-3.043-2.742c-.621.391-.87.914-.87 1.501Z"></path>
    <path fill="#72908B" d="M17.974 0h-1.367v17.303h1.367V0Zm0 46.685h-1.367v19.197h1.367V46.685Zm41.048-16.751c-2.426 0-4.621-.531-6.586-1.594-1.94-1.087-3.466-2.565-4.575-4.437-1.11-1.895-1.664-4.02-1.664-6.378 0-2.357.555-4.471 1.664-6.343 1.11-1.895 2.646-3.374 4.61-4.437 1.964-1.086 4.16-1.629 6.586-1.629 1.895 0 3.628.324 5.199.97a10.474 10.474 0 0 1 4.02 2.808l-2.252 2.184c-1.826-1.918-4.102-2.877-6.829-2.877-1.802 0-3.431.404-4.887 1.213a8.885 8.885 0 0 0-3.431 3.363c-.81 1.409-1.214 2.992-1.214 4.748 0 1.756.405 3.35 1.214 4.783a8.96 8.96 0 0 0 3.431 3.328c1.456.809 3.085 1.213 4.887 1.213 2.704 0 4.98-.97 6.829-2.912l2.253 2.184a10.753 10.753 0 0 1-4.056 2.843c-1.57.646-3.304.97-5.199.97ZM74.885 14.37c.578-1.062 1.433-1.87 2.565-2.425 1.133-.555 2.507-.832 4.125-.832v3.223a6.499 6.499 0 0 0-.763-.034c-1.802 0-3.223.543-4.263 1.629-1.017 1.063-1.525 2.588-1.525 4.575v9.15h-3.328v-18.37h3.19v3.085Zm26.185 6.205c0 .255-.023.59-.069 1.006H86.096c.208 1.617.913 2.923 2.115 3.916 1.224.97 2.738 1.456 4.54 1.456 2.195 0 3.963-.74 5.303-2.218l1.838 2.149c-.832.97-1.872 1.71-3.12 2.218-1.225.508-2.6.763-4.125.763-1.94 0-3.662-.393-5.164-1.179-1.502-.809-2.67-1.93-3.501-3.362-.809-1.433-1.213-3.05-1.213-4.853 0-1.779.392-3.385 1.178-4.818.809-1.432 1.907-2.542 3.293-3.327 1.41-.809 2.993-1.213 4.749-1.213 1.756 0 3.316.404 4.679 1.213 1.386.785 2.461 1.895 3.224 3.327.785 1.433 1.178 3.074 1.178 4.922Zm-9.081-6.655c-1.595 0-2.935.486-4.021 1.456-1.063.97-1.687 2.242-1.872 3.813h11.785c-.185-1.548-.82-2.808-1.906-3.778-1.063-.994-2.392-1.49-3.986-1.49Zm18.844-2.807c2.542 0 4.483.624 5.823 1.871 1.363 1.248 2.045 3.108 2.045 5.581v11.092h-3.154V27.23c-.555.855-1.352 1.514-2.392 1.976-1.017.44-2.23.659-3.639.659-2.057 0-3.709-.497-4.957-1.49-1.225-.994-1.837-2.3-1.837-3.918 0-1.617.589-2.911 1.768-3.882 1.178-.993 3.05-1.49 5.615-1.49h5.268v-.659c0-1.432-.415-2.53-1.247-3.292-.832-.763-2.057-1.144-3.674-1.144-1.087 0-2.15.184-3.189.554-1.04.347-1.918.82-2.635 1.421l-1.386-2.495c.947-.763 2.08-1.34 3.397-1.733a13.848 13.848 0 0 1 4.194-.624ZM110.07 27.3c1.271 0 2.369-.278 3.293-.832.924-.578 1.595-1.387 2.01-2.427v-2.564h-5.129c-2.82 0-4.229.947-4.229 2.842 0 .924.358 1.652 1.074 2.184.717.531 1.71.797 2.981.797Zm24.078 1.282c-.485.416-1.086.74-1.802.97a7.924 7.924 0 0 1-2.219.313c-1.848 0-3.281-.497-4.298-1.49-1.016-.994-1.525-2.416-1.525-4.264V14.024h-3.119v-2.738h3.119v-4.02h3.328v4.02h5.268v2.738h-5.268v9.948c0 .994.242 1.756.728 2.288.508.531 1.224.797 2.149.797 1.017 0 1.883-.289 2.599-.866l1.04 2.391Zm18.977-8.007c0 .255-.023.59-.069 1.006h-14.905c.208 1.617.913 2.923 2.115 3.916 1.224.97 2.738 1.456 4.54 1.456 2.195 0 3.963-.74 5.303-2.218l1.838 2.149c-.832.97-1.872 1.71-3.12 2.218-1.225.508-2.6.763-4.125.763-1.941 0-3.662-.393-5.164-1.179-1.502-.809-2.669-1.93-3.501-3.362-.809-1.433-1.213-3.05-1.213-4.853 0-1.779.392-3.385 1.178-4.818.809-1.432 1.907-2.542 3.293-3.327 1.41-.809 2.992-1.213 4.749-1.213 1.756 0 3.316.404 4.679 1.213 1.386.785 2.461 1.895 3.224 3.327.785 1.433 1.178 3.074 1.178 4.922Zm-9.081-6.655c-1.595 0-2.935.486-4.021 1.456-1.063.97-1.687 2.242-1.872 3.813h11.785c-.185-1.548-.82-2.808-1.906-3.778-1.063-.994-2.392-1.49-3.986-1.49Zm15.851.45c.577-1.062 1.432-1.87 2.565-2.425 1.132-.555 2.507-.832 4.124-.832v3.223a6.497 6.497 0 0 0-.762-.034c-1.803 0-3.224.543-4.264 1.629-1.016 1.063-1.525 2.588-1.525 4.575v9.15h-3.327v-18.37h3.189v3.085ZM51.64 41.09v8.458h12.165v2.98H51.64v9.81h-3.466V38.075h17.123v3.015H51.639Zm23.057 2.704c2.541 0 4.483.624 5.823 1.872 1.363 1.247 2.045 3.108 2.045 5.58v11.092H79.41V59.91c-.555.855-1.352 1.514-2.392 1.976-1.017.44-2.23.659-3.64.659-2.056 0-3.708-.497-4.956-1.49-1.225-.994-1.837-2.3-1.837-3.917 0-1.618.589-2.912 1.767-3.883 1.179-.993 3.05-1.49 5.616-1.49h5.268v-.659c0-1.432-.416-2.53-1.248-3.292-.832-.763-2.056-1.144-3.674-1.144a9.472 9.472 0 0 0-3.189.554c-1.04.347-1.918.82-2.634 1.421l-1.386-2.495c.947-.763 2.08-1.34 3.397-1.733a13.849 13.849 0 0 1 4.194-.624Zm-.763 16.187c1.27 0 2.368-.278 3.293-.832.924-.578 1.594-1.386 2.01-2.426v-2.565h-5.13c-2.819 0-4.228.947-4.228 2.842 0 .924.358 1.652 1.074 2.184.716.531 1.71.797 2.981.797Zm29.667-16.014-8.042 18.37h-3.397l-8.041-18.37h3.466l6.308 14.731 6.447-14.73h3.259Z"></path>
  </view>
  <view viewBox="0 0 8 14" id="facebook">
    <path fill="#053634" d="M5.627 0C3.656 0 2.5 1.041 2.5 3.413V5.5H0V8h2.5v6H5V8h2l.5-2.5H5V3.836C5 2.943 5.292 2.5 6.13 2.5H7.5V.103A15.291 15.291 0 0 0 5.627 0Z"></path>
  </view>
  <view viewBox="0 0 12 11" id="instagram">
    <path fill="#7C9994" d="M3.735 0A3.247 3.247 0 0 0 .5 3.235v4.53A3.247 3.247 0 0 0 3.735 11h4.53A3.247 3.247 0 0 0 11.5 7.766V3.235A3.247 3.247 0 0 0 8.265 0h-4.53Zm0 1h4.53A2.231 2.231 0 0 1 10.5 3.235v4.53A2.23 2.23 0 0 1 8.265 10h-4.53A2.23 2.23 0 0 1 1.5 7.766V3.235A2.232 2.232 0 0 1 3.735 1Zm5.218 1.094a.451.451 0 0 0-.453.453.45.45 0 0 0 .627.42.451.451 0 0 0 .246-.594.451.451 0 0 0-.42-.279ZM6 2.5c-1.65 0-3 1.35-3 3s1.35 3 3 3 3-1.35 3-3-1.35-3-3-3Zm0 1c1.112 0 2 .888 2 2s-.888 2-2 2-2-.888-2-2 .888-2 2-2Z"></path>
  </view>
  <view viewBox="0 0 147 44" id="lavender-agency">
    <path stroke="#72908B" stroke-width="3" d="M2 .357V43.66"></path>
    <path fill="#72908B" d="M21.323 16.162h5.18v1.96h-7.62V6.282h2.44v9.88Zm20.096-.48H37.14l-.813 2.44h-2.594l4.408-11.84h2.26l4.432 11.84H42.24l-.821-2.44ZM37.8 13.706h2.96l-1.488-4.432-1.472 4.432Zm18.543 1.48 2.683-8.904h2.716l-4.123 11.84h-2.545l-4.107-11.84h2.708l2.668 8.904ZM76.65 12.99h-4.684v3.172h5.497v1.96h-7.937V6.282h7.92v1.976h-5.48v2.822h4.684v1.91Zm18.534 5.132h-2.44l-4.748-7.79v7.79h-2.44V6.282h2.44l4.757 7.806V6.282h2.431v11.84Zm8.793 0V6.282h3.643c1.041 0 1.971.236 2.789.707a4.868 4.868 0 0 1 1.928 2c.46.863.691 1.844.691 2.944v.545c0 1.1-.228 2.08-.683 2.936a4.837 4.837 0 0 1-1.911 1.992c-.824.472-1.754.71-2.79.716h-3.667Zm2.439-9.864v7.904h1.18c.954 0 1.683-.312 2.187-.935.504-.623.762-1.515.773-2.675v-.627c0-1.203-.25-2.114-.748-2.732-.499-.623-1.228-.935-2.188-.935h-1.204Zm22.178 4.732h-4.684v3.172h5.497v1.96h-7.936V6.282h7.92v1.976h-5.481v2.822h4.684v1.91Zm13.29.798h-1.944v4.334h-2.44V6.282h4.4c1.399 0 2.477.311 3.236.935.759.623 1.139 1.504 1.139 2.643 0 .808-.176 1.483-.529 2.025-.347.536-.875.965-1.586 1.285l2.562 4.838v.114h-2.618l-2.22-4.334Zm-1.944-1.976h1.968c.613 0 1.087-.155 1.423-.464.336-.314.504-.745.504-1.293 0-.558-.16-.998-.48-1.317-.314-.32-.799-.48-1.455-.48h-1.96v3.554ZM25.568 36.778H21.29l-.813 2.44h-2.594l4.408-11.84h2.26l4.432 11.84H26.39l-.821-2.44Zm-3.619-1.976h2.96l-1.488-4.432-1.472 4.432Zm23.991 2.919c-.439.526-1.06.935-1.862 1.228-.802.288-1.692.431-2.667.431-1.025 0-1.925-.222-2.7-.667-.77-.45-1.366-1.1-1.79-1.951-.417-.852-.63-1.852-.642-3.001v-.805c0-1.182.198-2.204.594-3.066.401-.867.976-1.529 1.724-1.984.753-.46 1.634-.691 2.643-.691 1.404 0 2.502.336 3.293 1.008.792.667 1.26 1.64 1.407 2.92h-2.374c-.109-.678-.35-1.174-.724-1.489-.369-.314-.878-.471-1.529-.471-.83 0-1.461.311-1.895.935-.433.623-.653 1.55-.658 2.781v.756c0 1.242.235 2.18.707 2.814.472.634 1.163.951 2.074.951.916 0 1.57-.195 1.96-.585v-2.041h-2.22v-1.797h4.66v4.724Zm15.77-3.635h-4.684v3.172h5.497v1.96h-7.937v-11.84h7.92v1.975h-5.48v2.822h4.684v1.911Zm18.534 5.132h-2.44l-4.748-7.79v7.79h-2.44v-11.84h2.44l4.757 7.806v-7.807h2.431v11.84Zm18.088-3.945c-.092 1.274-.564 2.277-1.415 3.01-.846.731-1.963 1.097-3.35 1.097-1.519 0-2.714-.51-3.587-1.529-.867-1.024-1.301-2.428-1.301-4.212v-.724c0-1.138.2-2.141.602-3.009.4-.867.973-1.531 1.715-1.992.749-.466 1.616-.7 2.603-.7 1.366 0 2.466.367 3.301 1.099.835.731 1.318 1.759 1.448 3.082h-2.44c-.06-.765-.273-1.318-.642-1.66-.363-.346-.92-.52-1.667-.52-.813 0-1.423.293-1.83.878-.401.58-.607 1.483-.618 2.708v.895c0 1.28.193 2.215.577 2.806.39.59 1.003.886 1.838.886.754 0 1.315-.17 1.684-.512.374-.347.588-.881.642-1.602h2.44Zm12.346-2.561 2.464-5.335h2.667l-3.887 7.547v4.294h-2.48v-4.294l-3.888-7.547h2.676l2.448 5.335Z"></path>
  </view>
  <g viewBox="0 0 11 11" id="linkedin">
    <path fill="#7C9994" d="M1.821 0A1.32 1.32 0 0 0 .5 1.32c0 .73.591 1.335 1.32 1.335A1.333 1.333 0 0 0 2.755.387 1.32 1.32 0 0 0 1.822 0Zm6.446 3.5c-1.109 0-1.743.58-2.048 1.157h-.033V3.655H4V11h2.279V7.364c0-.957.072-1.883 1.257-1.883 1.168 0 1.186 1.092 1.186 1.944V11H11V6.966C11 4.992 10.575 3.5 8.268 3.5Zm-7.585.155V11h2.28V3.655H.682Z"></path>
  </g>
  <view viewBox="0 0 37 46" id="logo">
    <path fill="#053634" d="M30.622.995c.081 0 .122-.04.122-.122 0-.081-.04-.122-.122-.122h-20.13c-.081 0-.122.04-.122.122 0 .081.04.122.122.122h5.49c.244 0 .366.081.366.244v38.613c0 1.708-.407 2.969-1.22 3.782-.773.813-1.81 1.22-3.111 1.22-1.057 0-2.033-.366-2.928-1.098-.854-.732-1.281-1.627-1.281-2.684 0-.732.163-1.26.488-1.586.325-.325.671-.65 1.037-.976a7.233 7.233 0 0 0 1.037-1.159c.325-.447.488-1.159.488-2.135 0-1.301-.468-2.44-1.403-3.416s-2.074-1.464-3.416-1.464c-.61 0-1.22.142-1.83.427-.61.244-1.159.61-1.647 1.098-.488.488-.895 1.098-1.22 1.83-.325.691-.488 1.484-.488 2.379 0 1.098.305 2.196.915 3.294a11.857 11.857 0 0 0 2.501 2.867 14.7 14.7 0 0 0 3.599 2.013c1.342.529 2.725.793 4.148.793 3.863 0 6.934-.976 9.211-2.928 2.318-1.952 3.477-4.717 3.477-8.296V1.239c0-.163.142-.244.427-.244h5.49Z"></path>
    <path fill="#EBB017" d="M36.03 41.194c0-.976-.326-1.81-.976-2.501-.651-.732-1.444-1.098-2.38-1.098-.935 0-1.748.366-2.44 1.098-.65.691-.975 1.525-.975 2.501 0 1.017.325 1.87.976 2.562.69.691 1.504 1.037 2.44 1.037.935 0 1.728-.346 2.379-1.037.65-.691.976-1.545.976-2.562Z"></path>
  </view>
  <view viewBox="0 0 16 14" id="menu">
    <path fill="#053634" d="M0 1a1 1 0 0 1 1-1h14a1 1 0 1 1 0 2H1a1 1 0 0 1-1-1Zm0 12a1 1 0 0 1 1-1h14a1 1 0 0 1 0 2H1a1 1 0 0 1-1-1Zm7-7a1 1 0 0 0 0 2h8a1 1 0 1 0 0-2H7Z"></path>
  </view>
  <view viewBox="0 0 17 17" id="search">
    <path fill="#053634" fill-rule="evenodd" d="m12.176 10.964 4.573 4.573a.857.857 0 1 1-1.213 1.212l-4.573-4.573a6.8 6.8 0 1 1 1.213-1.212Zm-5.376.935A5.1 5.1 0 1 0 6.8 1.7a5.1 5.1 0 0 0 0 10.2Z" clip-rule="evenodd"></path>
  </view>
  <view viewBox="0 0 15 13" id="send">
    <path fill="#F8F6F1" d="M13.89.001a1.768 1.768 0 0 0-.539.124h-.002c-.165.063-.947.38-2.135.862l-4.26 1.73L.892 5.183l.036-.013s-.207.065-.423.209a1.144 1.144 0 0 0-.338.315.9.9 0 0 0-.16.618c.052.402.322.643.516.776.196.135.383.198.383.198H.91l2.818.916c.127.391.859 2.714 1.035 3.25.104.319.205.519.331.671a.662.662 0 0 0 .36.255l-.028-.007c.008.002.015.009.022.011a.485.485 0 0 0 .068.013c.446.13.804-.137.804-.137l.02-.015 1.664-1.462 2.789 2.064.063.026c.581.246 1.17.11 1.48-.132.314-.244.436-.555.436-.555l.02-.05 2.155-10.65c.06-.263.076-.51.009-.748a1.01 1.01 0 0 0-.45-.583 1.108 1.108 0 0 0-.617-.15Zm-.059 1.142c-.002.035.005.03-.011.098v.006l-2.135 10.54c-.01.015-.025.048-.067.08-.045.035-.081.057-.269-.015L7.94 9.33l-2.06 1.811.433-2.667 5.572-5.01c.23-.207.153-.25.153-.25.016-.253-.347-.074-.347-.074l-7.026 4.2-.003-.012-3.367-1.094v-.002l-.01-.001a.159.159 0 0 0 .018-.007l.019-.01.018-.005 6.063-2.464 4.258-1.732a671.23 671.23 0 0 1 2.112-.852c.048-.018.025-.018.06-.018Z"></path>
  </view>
  <view viewBox="0 0 12 10" id="twitter">
    <path fill="#7C9994" d="M12 1.157c-.45.2-.926.33-1.414.387A2.47 2.47 0 0 0 11.668.182a4.96 4.96 0 0 1-1.563.598A2.462 2.462 0 0 0 5.91 3.024 6.978 6.978 0 0 1 .835.452a2.458 2.458 0 0 0 .762 3.288 2.448 2.448 0 0 1-1.115-.31v.032a2.461 2.461 0 0 0 1.975 2.414c-.362.1-.743.114-1.112.043a2.466 2.466 0 0 0 2.299 1.71A4.938 4.938 0 0 1 0 8.648a6.962 6.962 0 0 0 3.773 1.108c4.53 0 7.006-3.752 7.006-7.006 0-.105-.004-.213-.008-.319.482-.348.898-.78 1.229-1.272Z"></path>
  </view>
  <view viewBox="0 0 184 41" id="vin-tage">
    <rect width="93.265" height="39.971" x="90.656" y=".619" fill="#72908B" rx="1"></rect>
    <path fill="#72908B" d="M.722 9.848h4.345l4.618 13.547c1.425-4.492 4.888-14.26 6.178-16.685 1.97-3.779 5.432-5.49 9.71-4.848l-.476 4.278c-2.648-.428-4.48.428-5.567 2.71-2.173 4.064-7.605 21.818-7.673 21.96l-.271.215-3.531.071L.722 9.848Zm27.295 3.422h-2.716V9.42h9.71v3.85h-2.92v13.405h-4.074V13.27Zm-2.716 14.047h9.71v3.85H25.3v-3.85Zm17.995-17.47h4.21l6.518 12.55V9.847h4.074v21.178l-.272.142h-3.938l-6.518-12.62v12.62h-4.074V9.847Z"></path>
    <path fill="#F8F6F1" d="M165.827 26.898v-3.28h6.111V19.34h-12.629v4.278h2.376v7.558h13.308v-4.278h-9.166Zm0-13.118h8.555V9.5h-12.697v9.056h4.142v-4.778Zm-62.331.355h-6.179v-4.35h16.432v4.35h-6.179v17.042h-4.142V14.135h.068Z"></path>
    <path fill="#72908B" d="M78.943 18.403H63.19v4.136h15.753v-4.136Z"></path>
    <path fill="#F8F6F1" d="M146.204 21.195v3.85h4.617c-1.087 1.141-2.445 1.854-4.074 1.854-3.327 0-6.043-2.852-6.043-6.346 0-3.493 2.716-6.346 6.043-6.346 2.308 0 4.413 1.355 5.432 3.566l3.598-2.068c-1.765-3.565-5.228-5.776-9.03-5.776-5.636 0-10.117 4.777-10.117 10.624s4.549 10.696 10.117 10.696c3.87 0 7.469-2.068 9.098-6.132v-3.85h-9.641v-.072Zm-19.351-11.124-3.802.072S118.23 25.9 115.854 31.32h18.264l-7.265-21.249Zm-5.092 17.398c1.29-3.494 2.58-7.344 3.327-9.697l3.327 9.697h-6.654Z"></path>
  </view>
  <view viewBox="0 0 136 33" id="violet">
    <path fill="#72908B" d="M24.578 1.812h-5.38l-6.49 16.838L6.221 1.81h-5.3l11.788 30.573L24.578 1.812Zm11.948 0H31.54v30.572h4.985V1.812Zm17.881 22.724c6.013 0 10.998-5.068 10.998-11.362 0-6.212-4.906-11.362-10.998-11.362S43.41 6.962 43.41 13.174c0 6.294 4.985 11.362 10.998 11.362Zm0-17.656c3.402 0 6.093 2.78 6.093 6.294 0 3.515-2.69 6.294-6.093 6.294-3.402 0-6.092-2.779-6.092-6.294 0-3.515 2.69-6.294 6.092-6.294Zm9.653 20.435H44.515v5.068H64.06v-5.068Zm24.132.001h-10.92V1.812h-4.905v30.572h15.825v-5.068Zm27.058 0h-14.795v-7.684h12.264v-5.068h-12.264V6.962h14.795v-5.15H95.47v30.572h19.78v-5.068Zm10.919 5.068h4.906V6.962h4.905v-5.15h-14.795v5.15h4.984v25.422Z"></path>
    <path fill="#72908B" d="M54.407 25.844c6.725 0 12.185-5.64 12.185-12.588 0-6.948-5.46-12.589-12.185-12.589-6.725 0-12.185 5.64-12.185 12.589-.08 6.948 5.46 12.588 12.185 12.588Zm0-24.523c6.409 0 11.552 5.314 11.552 11.935 0 6.54-5.143 11.934-11.552 11.934-6.41 0-11.552-5.313-11.552-11.934 0-6.621 5.143-11.935 11.552-11.935Z"></path>
  </view>
  <view viewBox="0 0 18 10" id="arrow">
    <path fill="#053634" d="m12.942 0-1.06 1.07 3.225 3.186H0v1.488h15.107L11.883 8.93l1.06 1.07L18 5l-5.058-5Z"></path>
  </view>
  <view viewBox="0 0 10 10" id="blogger">
    <path fill="#7C9994" d="M3 0a3 3 0 0 0-3 3v3.5a3 3 0 0 0 3 3h3.5a3 3 0 0 0 3-3V4a.5.5 0 0 0-.5-.5h-.5A.5.5 0 0 1 8 3a3 3 0 0 0-3-3H3Zm0 2.5h2c.275 0 .5.225.5.5s-.225.5-.5.5H3a.501.501 0 0 1-.5-.5c0-.275.225-.5.5-.5ZM3 6h3.5c.275 0 .5.225.5.5s-.225.5-.5.5H3a.501.501 0 0 1-.5-.5c0-.275.225-.5.5-.5Z"></path>
  </view>
  <view viewBox="0 0 182 49" id="ceathes">
    <path fill="#72908B" d="M23.635 27.89c-.172 2.379-1.052 4.25-2.641 5.617-1.579 1.366-3.663 2.05-6.254 2.05-2.834 0-5.065-.952-6.694-2.855-1.62-1.912-2.43-4.533-2.43-7.863v-1.35c0-2.126.375-3.998 1.124-5.617.749-1.62 1.817-2.86 3.203-3.72 1.397-.87 3.016-1.305 4.858-1.305 2.55 0 4.604.683 6.163 2.05 1.558 1.366 2.459 3.283 2.702 5.753h-4.554c-.112-1.427-.511-2.46-1.2-3.097-.678-.648-1.715-.972-3.111-.972-1.518 0-2.657.547-3.416 1.64-.749 1.083-1.133 2.768-1.153 5.055v1.67c0 2.388.359 4.133 1.077 5.236.729 1.104 1.872 1.655 3.43 1.655 1.407 0 2.455-.319 3.143-.956.698-.648 1.098-1.645 1.2-2.99h4.553Zm22.505-2.216h-8.743v5.92H47.66v3.659H32.843V13.15h14.785v3.689h-10.23v5.267h8.743v3.567Zm22.886 5.025H61.04l-1.518 4.554H54.68l8.227-22.102h4.22L75.4 35.253h-4.84l-1.533-4.554ZM62.27 27.01h5.525l-2.778-8.273-2.747 8.273Zm36.229-10.17h-6.77v18.413h-4.554V16.84h-6.68v-3.69H98.5v3.69Zm26.817 18.413h-4.554V25.78h-8.881v9.473h-4.554V13.15h4.554v8.956h8.881V13.15h4.554v22.102Zm23.507-9.579h-8.744v5.92h10.262v3.659h-14.816V13.15h14.786v3.689h-10.232v5.267h8.744v3.567Zm21.868 3.78c0-.86-.304-1.518-.911-1.974-.607-.465-1.7-.95-3.279-1.457-1.578-.516-2.828-1.022-3.749-1.518-2.51-1.356-3.765-3.182-3.765-5.48 0-1.194.334-2.256 1.002-3.187.678-.941 1.645-1.675 2.9-2.201 1.265-.527 2.681-.79 4.25-.79 1.579 0 2.985.289 4.22.866 1.235.566 2.191 1.37 2.869 2.413.688 1.042 1.032 2.226 1.032 3.552h-4.554c0-1.012-.319-1.796-.956-2.353-.638-.566-1.533-.85-2.687-.85-1.113 0-1.978.238-2.596.714-.617.465-.926 1.082-.926 1.852 0 .718.36 1.32 1.078 1.806.729.486 1.796.941 3.203 1.366 2.591.78 4.478 1.746 5.662 2.9 1.184 1.153 1.776 2.59 1.776 4.31 0 1.913-.723 3.416-2.171 4.509-1.447 1.083-3.395 1.624-5.844 1.624-1.7 0-3.248-.308-4.645-.926-1.396-.627-2.464-1.482-3.203-2.565-.728-1.083-1.093-2.338-1.093-3.765h4.569c0 2.44 1.458 3.659 4.372 3.659 1.083 0 1.928-.218 2.535-.653.607-.445.911-1.063.911-1.852ZM.98.833h180.978v2.221H.98V.834Zm0 45.522h180.978v2.221H.98v-2.22Z"></path>
  </view>
</svg>