<svg xmlns="http://www.w3.org/2000/svg" width="147" height="44" fill="none" viewBox="0 0 147 44">
  <path stroke="#72908B" stroke-width="3" d="M2 .357V43.66"/>
  <path fill="#72908B" d="M21.323 16.162h5.18v1.96h-7.62V6.282h2.44v9.88Zm20.096-.48H37.14l-.813 2.44h-2.594l4.408-11.84h2.26l4.432 11.84H42.24l-.821-2.44ZM37.8 13.706h2.96l-1.488-4.432-1.472 4.432Zm18.543 1.48 2.683-8.904h2.716l-4.123 11.84h-2.545l-4.107-11.84h2.708l2.668 8.904ZM76.65 12.99h-4.684v3.172h5.497v1.96h-7.937V6.282h7.92v1.976h-5.48v2.822h4.684v1.91Zm18.534 5.132h-2.44l-4.748-7.79v7.79h-2.44V6.282h2.44l4.757 7.806V6.282h2.431v11.84Zm8.793 0V6.282h3.643c1.041 0 1.971.236 2.789.707a4.868 4.868 0 0 1 1.928 2c.46.863.691 1.844.691 2.944v.545c0 1.1-.228 2.08-.683 2.936a4.837 4.837 0 0 1-1.911 1.992c-.824.472-1.754.71-2.79.716h-3.667Zm2.439-9.864v7.904h1.18c.954 0 1.683-.312 2.187-.935.504-.623.762-1.515.773-2.675v-.627c0-1.203-.25-2.114-.748-2.732-.499-.623-1.228-.935-2.188-.935h-1.204Zm22.178 4.732h-4.684v3.172h5.497v1.96h-7.936V6.282h7.92v1.976h-5.481v2.822h4.684v1.91Zm13.29.798h-1.944v4.334h-2.44V6.282h4.4c1.399 0 2.477.311 3.236.935.759.623 1.139 1.504 1.139 2.643 0 .808-.176 1.483-.529 2.025-.347.536-.875.965-1.586 1.285l2.562 4.838v.114h-2.618l-2.22-4.334Zm-1.944-1.976h1.968c.613 0 1.087-.155 1.423-.464.336-.314.504-.745.504-1.293 0-.558-.16-.998-.48-1.317-.314-.32-.799-.48-1.455-.48h-1.96v3.554ZM25.568 36.778H21.29l-.813 2.44h-2.594l4.408-11.84h2.26l4.432 11.84H26.39l-.821-2.44Zm-3.619-1.976h2.96l-1.488-4.432-1.472 4.432Zm23.991 2.919c-.439.526-1.06.935-1.862 1.228-.802.288-1.692.431-2.667.431-1.025 0-1.925-.222-2.7-.667-.77-.45-1.366-1.1-1.79-1.951-.417-.852-.63-1.852-.642-3.001v-.805c0-1.182.198-2.204.594-3.066.401-.867.976-1.529 1.724-1.984.753-.46 1.634-.691 2.643-.691 1.404 0 2.502.336 3.293 1.008.792.667 1.26 1.64 1.407 2.92h-2.374c-.109-.678-.35-1.174-.724-1.489-.369-.314-.878-.471-1.529-.471-.83 0-1.461.311-1.895.935-.433.623-.653 1.55-.658 2.781v.756c0 1.242.235 2.18.707 2.814.472.634 1.163.951 2.074.951.916 0 1.57-.195 1.96-.585v-2.041h-2.22v-1.797h4.66v4.724Zm15.77-3.635h-4.684v3.172h5.497v1.96h-7.937v-11.84h7.92v1.975h-5.48v2.822h4.684v1.911Zm18.534 5.132h-2.44l-4.748-7.79v7.79h-2.44v-11.84h2.44l4.757 7.806v-7.807h2.431v11.84Zm18.088-3.945c-.092 1.274-.564 2.277-1.415 3.01-.846.731-1.963 1.097-3.35 1.097-1.519 0-2.714-.51-3.587-1.529-.867-1.024-1.301-2.428-1.301-4.212v-.724c0-1.138.2-2.141.602-3.009.4-.867.973-1.531 1.715-1.992.749-.466 1.616-.7 2.603-.7 1.366 0 2.466.367 3.301 1.099.835.731 1.318 1.759 1.448 3.082h-2.44c-.06-.765-.273-1.318-.642-1.66-.363-.346-.92-.52-1.667-.52-.813 0-1.423.293-1.83.878-.401.58-.607 1.483-.618 2.708v.895c0 1.28.193 2.215.577 2.806.39.59 1.003.886 1.838.886.754 0 1.315-.17 1.684-.512.374-.347.588-.881.642-1.602h2.44Zm12.346-2.561 2.464-5.335h2.667l-3.887 7.547v4.294h-2.48v-4.294l-3.888-7.547h2.676l2.448 5.335Z"/>
</svg>
