<svg xmlns="http://www.w3.org/2000/svg" width="167" height="66" fill="none" viewBox="0 0 167 66">
  <path fill="#72908B" d="M17.29 15.736C8.287 15.736.959 23.441.959 32.908c0 9.468 7.328 17.173 16.333 17.173 9.004 0 16.332-7.705 16.332-17.173 0-9.467-7.328-17.172-16.332-17.172Zm8.881 25.008a12.45 12.45 0 0 1-1.739 1.305c-.62.458-1.366.784-2.111 1.176-.745.326-1.615.587-2.484.783-.87.196-1.801.327-2.795.327-1.428 0-2.732-.196-3.788-.523-1.056-.326-1.925-.783-2.608-1.436a5.114 5.114 0 0 1-1.49-2.155c-.31-.849-.497-1.697-.497-2.677 0-1.371.31-2.481.87-3.395.558-.914 1.365-1.698 2.297-2.35-.497-.523-.87-1.176-1.18-1.96a5.957 5.957 0 0 1-.497-2.415c0-.914.187-1.829.497-2.612.31-.784.807-1.502 1.366-2.09a6.651 6.651 0 0 1 2.112-1.37c.807-.327 1.676-.458 2.608-.458 1.056 0 1.987.196 2.794.523.87.326 1.553.783 2.174 1.37.621.588 1.056 1.307 1.366 2.09a7.3 7.3 0 0 1 .497 2.677c0 1.11-.31 2.09-.87 2.939-.558.848-1.242 1.567-2.049 2.22l2.857 2.546c.248-.261.497-.522.745-.849.248-.261.559-.653.932-1.175l4.223 3.787a14.039 14.039 0 0 1-1.491 1.893 11.812 11.812 0 0 1-1.739 1.829Zm-1.614-3.07c-.373.392-.808.719-1.18 1.045a15.659 15.659 0 0 1-2.733 1.502c-1.055.457-2.297.653-3.726.653-.497 0-.993-.065-1.552-.196a5.533 5.533 0 0 1-1.429-.587 2.948 2.948 0 0 1-1.055-1.11c-.31-.457-.435-1.045-.435-1.698 0-.98.248-1.698.807-2.285.497-.588 1.242-1.11 2.236-1.633l.931-.522 4.969 4.31.62-.458-4.843-4.244c1.18-.653 2.111-1.37 2.794-2.154.683-.784 1.056-1.698 1.056-2.808 0-.588-.124-1.11-.31-1.567-.25-.457-.498-.914-.932-1.24a4.046 4.046 0 0 0-1.366-.784c-.497-.196-1.056-.261-1.677-.261a3.99 3.99 0 0 0-1.49.26 4.42 4.42 0 0 0-1.305.784c-.372.327-.683.784-.931 1.24-.249.458-.31 1.046-.31 1.633 0 .85.186 1.567.62 2.155.435.653.994 1.24 1.74 1.893l.807.719-.746.391c-.435.262-.931.523-1.304.784-.435.326-.745.653-1.056.98-.31.391-.559.783-.683 1.24-.186.457-.248.98-.248 1.502 0 .718.124 1.37.435 1.958.31.588.683.98 1.18 1.372.496.326 1.055.653 1.676.783.621.196 1.304.261 1.988.261a10.75 10.75 0 0 0 3.912-.718 14.052 14.052 0 0 0 2.919-1.632 14.856 14.856 0 0 0 2.484-2.416l-.621-.457-1.242 1.306ZM15.49 31.08c-.87-.718-1.366-1.371-1.677-1.893a3.621 3.621 0 0 1-.373-1.568c0-.914.311-1.697.87-2.285a3.207 3.207 0 0 1 2.298-.914c.434 0 .87.065 1.242.196.434.13.745.326 1.117.588.311.26.56.587.746.98.186.39.31.848.31 1.37 0 1.045-.31 1.894-.931 2.547-.621.653-1.49 1.24-2.67 1.893l-.932-.914Zm2.173-2.677c.187-.261.31-.588.31-.98 0-.848-.372-1.24-1.179-1.24-.373 0-.621.13-.87.326-.248.262-.31.523-.31.915 0 .326.062.587.186.914.125.26.435.587.808.98.497-.327.807-.654 1.055-.915Zm-2.484 8.75c0 .522.187.913.621 1.175.373.26.87.391 1.367.391.31 0 .62 0 .993-.065.31-.065.621-.13.932-.261l-3.043-2.742c-.621.391-.87.914-.87 1.501Z"/>
  <path fill="#72908B" d="M17.974 0h-1.367v17.303h1.367V0Zm0 46.685h-1.367v19.197h1.367V46.685Zm41.048-16.751c-2.426 0-4.621-.531-6.586-1.594-1.94-1.087-3.466-2.565-4.575-4.437-1.11-1.895-1.664-4.02-1.664-6.378 0-2.357.555-4.471 1.664-6.343 1.11-1.895 2.646-3.374 4.61-4.437 1.964-1.086 4.16-1.629 6.586-1.629 1.895 0 3.628.324 5.199.97a10.474 10.474 0 0 1 4.02 2.808l-2.252 2.184c-1.826-1.918-4.102-2.877-6.829-2.877-1.802 0-3.431.404-4.887 1.213a8.885 8.885 0 0 0-3.431 3.363c-.81 1.409-1.214 2.992-1.214 4.748 0 1.756.405 3.35 1.214 4.783a8.96 8.96 0 0 0 3.431 3.328c1.456.809 3.085 1.213 4.887 1.213 2.704 0 4.98-.97 6.829-2.912l2.253 2.184a10.753 10.753 0 0 1-4.056 2.843c-1.57.646-3.304.97-5.199.97ZM74.885 14.37c.578-1.062 1.433-1.87 2.565-2.425 1.133-.555 2.507-.832 4.125-.832v3.223a6.499 6.499 0 0 0-.763-.034c-1.802 0-3.223.543-4.263 1.629-1.017 1.063-1.525 2.588-1.525 4.575v9.15h-3.328v-18.37h3.19v3.085Zm26.185 6.205c0 .255-.023.59-.069 1.006H86.096c.208 1.617.913 2.923 2.115 3.916 1.224.97 2.738 1.456 4.54 1.456 2.195 0 3.963-.74 5.303-2.218l1.838 2.149c-.832.97-1.872 1.71-3.12 2.218-1.225.508-2.6.763-4.125.763-1.94 0-3.662-.393-5.164-1.179-1.502-.809-2.67-1.93-3.501-3.362-.809-1.433-1.213-3.05-1.213-4.853 0-1.779.392-3.385 1.178-4.818.809-1.432 1.907-2.542 3.293-3.327 1.41-.809 2.993-1.213 4.749-1.213 1.756 0 3.316.404 4.679 1.213 1.386.785 2.461 1.895 3.224 3.327.785 1.433 1.178 3.074 1.178 4.922Zm-9.081-6.655c-1.595 0-2.935.486-4.021 1.456-1.063.97-1.687 2.242-1.872 3.813h11.785c-.185-1.548-.82-2.808-1.906-3.778-1.063-.994-2.392-1.49-3.986-1.49Zm18.844-2.807c2.542 0 4.483.624 5.823 1.871 1.363 1.248 2.045 3.108 2.045 5.581v11.092h-3.154V27.23c-.555.855-1.352 1.514-2.392 1.976-1.017.44-2.23.659-3.639.659-2.057 0-3.709-.497-4.957-1.49-1.225-.994-1.837-2.3-1.837-3.918 0-1.617.589-2.911 1.768-3.882 1.178-.993 3.05-1.49 5.615-1.49h5.268v-.659c0-1.432-.415-2.53-1.247-3.292-.832-.763-2.057-1.144-3.674-1.144-1.087 0-2.15.184-3.189.554-1.04.347-1.918.82-2.635 1.421l-1.386-2.495c.947-.763 2.08-1.34 3.397-1.733a13.848 13.848 0 0 1 4.194-.624ZM110.07 27.3c1.271 0 2.369-.278 3.293-.832.924-.578 1.595-1.387 2.01-2.427v-2.564h-5.129c-2.82 0-4.229.947-4.229 2.842 0 .924.358 1.652 1.074 2.184.717.531 1.71.797 2.981.797Zm24.078 1.282c-.485.416-1.086.74-1.802.97a7.924 7.924 0 0 1-2.219.313c-1.848 0-3.281-.497-4.298-1.49-1.016-.994-1.525-2.416-1.525-4.264V14.024h-3.119v-2.738h3.119v-4.02h3.328v4.02h5.268v2.738h-5.268v9.948c0 .994.242 1.756.728 2.288.508.531 1.224.797 2.149.797 1.017 0 1.883-.289 2.599-.866l1.04 2.391Zm18.977-8.007c0 .255-.023.59-.069 1.006h-14.905c.208 1.617.913 2.923 2.115 3.916 1.224.97 2.738 1.456 4.54 1.456 2.195 0 3.963-.74 5.303-2.218l1.838 2.149c-.832.97-1.872 1.71-3.12 2.218-1.225.508-2.6.763-4.125.763-1.941 0-3.662-.393-5.164-1.179-1.502-.809-2.669-1.93-3.501-3.362-.809-1.433-1.213-3.05-1.213-4.853 0-1.779.392-3.385 1.178-4.818.809-1.432 1.907-2.542 3.293-3.327 1.41-.809 2.992-1.213 4.749-1.213 1.756 0 3.316.404 4.679 1.213 1.386.785 2.461 1.895 3.224 3.327.785 1.433 1.178 3.074 1.178 4.922Zm-9.081-6.655c-1.595 0-2.935.486-4.021 1.456-1.063.97-1.687 2.242-1.872 3.813h11.785c-.185-1.548-.82-2.808-1.906-3.778-1.063-.994-2.392-1.49-3.986-1.49Zm15.851.45c.577-1.062 1.432-1.87 2.565-2.425 1.132-.555 2.507-.832 4.124-.832v3.223a6.497 6.497 0 0 0-.762-.034c-1.803 0-3.224.543-4.264 1.629-1.016 1.063-1.525 2.588-1.525 4.575v9.15h-3.327v-18.37h3.189v3.085ZM51.64 41.09v8.458h12.165v2.98H51.64v9.81h-3.466V38.075h17.123v3.015H51.639Zm23.057 2.704c2.541 0 4.483.624 5.823 1.872 1.363 1.247 2.045 3.108 2.045 5.58v11.092H79.41V59.91c-.555.855-1.352 1.514-2.392 1.976-1.017.44-2.23.659-3.64.659-2.056 0-3.708-.497-4.956-1.49-1.225-.994-1.837-2.3-1.837-3.917 0-1.618.589-2.912 1.767-3.883 1.179-.993 3.05-1.49 5.616-1.49h5.268v-.659c0-1.432-.416-2.53-1.248-3.292-.832-.763-2.056-1.144-3.674-1.144a9.472 9.472 0 0 0-3.189.554c-1.04.347-1.918.82-2.634 1.421l-1.386-2.495c.947-.763 2.08-1.34 3.397-1.733a13.849 13.849 0 0 1 4.194-.624Zm-.763 16.187c1.27 0 2.368-.278 3.293-.832.924-.578 1.594-1.386 2.01-2.426v-2.565h-5.13c-2.819 0-4.228.947-4.228 2.842 0 .924.358 1.652 1.074 2.184.716.531 1.71.797 2.981.797Zm29.667-16.014-8.042 18.37h-3.397l-8.041-18.37h3.466l6.308 14.731 6.447-14.73h3.259Z"/>
</svg>
