<svg xmlns="http://www.w3.org/2000/svg" width="182" height="49" fill="none" viewBox="0 0 182 49">
  <path fill="#72908B" d="M23.635 27.89c-.172 2.379-1.052 4.25-2.641 5.617-1.579 1.366-3.663 2.05-6.254 2.05-2.834 0-5.065-.952-6.694-2.855-1.62-1.912-2.43-4.533-2.43-7.863v-1.35c0-2.126.375-3.998 1.124-5.617.749-1.62 1.817-2.86 3.203-3.72 1.397-.87 3.016-1.305 4.858-1.305 2.55 0 4.604.683 6.163 2.05 1.558 1.366 2.459 3.283 2.702 5.753h-4.554c-.112-1.427-.511-2.46-1.2-3.097-.678-.648-1.715-.972-3.111-.972-1.518 0-2.657.547-3.416 1.64-.749 1.083-1.133 2.768-1.153 5.055v1.67c0 2.388.359 4.133 1.077 5.236.729 1.104 1.872 1.655 3.43 1.655 1.407 0 2.455-.319 3.143-.956.698-.648 1.098-1.645 1.2-2.99h4.553Zm22.505-2.216h-8.743v5.92H47.66v3.659H32.843V13.15h14.785v3.689h-10.23v5.267h8.743v3.567Zm22.886 5.025H61.04l-1.518 4.554H54.68l8.227-22.102h4.22L75.4 35.253h-4.84l-1.533-4.554ZM62.27 27.01h5.525l-2.778-8.273-2.747 8.273Zm36.229-10.17h-6.77v18.413h-4.554V16.84h-6.68v-3.69H98.5v3.69Zm26.817 18.413h-4.554V25.78h-8.881v9.473h-4.554V13.15h4.554v8.956h8.881V13.15h4.554v22.102Zm23.507-9.579h-8.744v5.92h10.262v3.659h-14.816V13.15h14.786v3.689h-10.232v5.267h8.744v3.567Zm21.868 3.78c0-.86-.304-1.518-.911-1.974-.607-.465-1.7-.95-3.279-1.457-1.578-.516-2.828-1.022-3.749-1.518-2.51-1.356-3.765-3.182-3.765-5.48 0-1.194.334-2.256 1.002-3.187.678-.941 1.645-1.675 2.9-2.201 1.265-.527 2.681-.79 4.25-.79 1.579 0 2.985.289 4.22.866 1.235.566 2.191 1.37 2.869 2.413.688 1.042 1.032 2.226 1.032 3.552h-4.554c0-1.012-.319-1.796-.956-2.353-.638-.566-1.533-.85-2.687-.85-1.113 0-1.978.238-2.596.714-.617.465-.926 1.082-.926 1.852 0 .718.36 1.32 1.078 1.806.729.486 1.796.941 3.203 1.366 2.591.78 4.478 1.746 5.662 2.9 1.184 1.153 1.776 2.59 1.776 4.31 0 1.913-.723 3.416-2.171 4.509-1.447 1.083-3.395 1.624-5.844 1.624-1.7 0-3.248-.308-4.645-.926-1.396-.627-2.464-1.482-3.203-2.565-.728-1.083-1.093-2.338-1.093-3.765h4.569c0 2.44 1.458 3.659 4.372 3.659 1.083 0 1.928-.218 2.535-.653.607-.445.911-1.063.911-1.852ZM.98.833h180.978v2.221H.98V.834Zm0 45.522h180.978v2.221H.98v-2.22Z"/>
</svg>
