<svg xmlns="http://www.w3.org/2000/svg" width="184" height="41" fill="none" viewBox="0 0 184 41">
  <rect width="93.265" height="39.971" x="90.656" y=".619" fill="#72908B" rx="1"/>
  <path fill="#72908B" d="M.722 9.848h4.345l4.618 13.547c1.425-4.492 4.888-14.26 6.178-16.685 1.97-3.779 5.432-5.49 9.71-4.848l-.476 4.278c-2.648-.428-4.48.428-5.567 2.71-2.173 4.064-7.605 21.818-7.673 21.96l-.271.215-3.531.071L.722 9.848Zm27.295 3.422h-2.716V9.42h9.71v3.85h-2.92v13.405h-4.074V13.27Zm-2.716 14.047h9.71v3.85H25.3v-3.85Zm17.995-17.47h4.21l6.518 12.55V9.847h4.074v21.178l-.272.142h-3.938l-6.518-12.62v12.62h-4.074V9.847Z"/>
  <path fill="#F8F6F1" d="M165.827 26.898v-3.28h6.111V19.34h-12.629v4.278h2.376v7.558h13.308v-4.278h-9.166Zm0-13.118h8.555V9.5h-12.697v9.056h4.142v-4.778Zm-62.331.355h-6.179v-4.35h16.432v4.35h-6.179v17.042h-4.142V14.135h.068Z"/>
  <path fill="#72908B" d="M78.943 18.403H63.19v4.136h15.753v-4.136Z"/>
  <path fill="#F8F6F1" d="M146.204 21.195v3.85h4.617c-1.087 1.141-2.445 1.854-4.074 1.854-3.327 0-6.043-2.852-6.043-6.346 0-3.493 2.716-6.346 6.043-6.346 2.308 0 4.413 1.355 5.432 3.566l3.598-2.068c-1.765-3.565-5.228-5.776-9.03-5.776-5.636 0-10.117 4.777-10.117 10.624s4.549 10.696 10.117 10.696c3.87 0 7.469-2.068 9.098-6.132v-3.85h-9.641v-.072Zm-19.351-11.124-3.802.072S118.23 25.9 115.854 31.32h18.264l-7.265-21.249Zm-5.092 17.398c1.29-3.494 2.58-7.344 3.327-9.697l3.327 9.697h-6.654Z"/>
</svg>
