<svg xmlns="http://www.w3.org/2000/svg" width="136" height="33" fill="none" viewBox="0 0 136 33">
  <path fill="#72908B" d="M24.578 1.812h-5.38l-6.49 16.838L6.221 1.81h-5.3l11.788 30.573L24.578 1.812Zm11.948 0H31.54v30.572h4.985V1.812Zm17.881 22.724c6.013 0 10.998-5.068 10.998-11.362 0-6.212-4.906-11.362-10.998-11.362S43.41 6.962 43.41 13.174c0 6.294 4.985 11.362 10.998 11.362Zm0-17.656c3.402 0 6.093 2.78 6.093 6.294 0 3.515-2.69 6.294-6.093 6.294-3.402 0-6.092-2.779-6.092-6.294 0-3.515 2.69-6.294 6.092-6.294Zm9.653 20.435H44.515v5.068H64.06v-5.068Zm24.132.001h-10.92V1.812h-4.905v30.572h15.825v-5.068Zm27.058 0h-14.795v-7.684h12.264v-5.068h-12.264V6.962h14.795v-5.15H95.47v30.572h19.78v-5.068Zm10.919 5.068h4.906V6.962h4.905v-5.15h-14.795v5.15h4.984v25.422Z"/>
  <path fill="#72908B" d="M54.407 25.844c6.725 0 12.185-5.64 12.185-12.588 0-6.948-5.46-12.589-12.185-12.589-6.725 0-12.185 5.64-12.185 12.589-.08 6.948 5.46 12.588 12.185 12.588Zm0-24.523c6.409 0 11.552 5.314 11.552 11.935 0 6.54-5.143 11.934-11.552 11.934-6.41 0-11.552-5.313-11.552-11.934 0-6.621 5.143-11.935 11.552-11.935Z"/>
</svg>
